{
  "accessors": [
    {
      "bufferView": 2,
      "componentType": 5126,
      "count": 1474,
      "max": [
        7.9004058837890625,
        -1.6262710094451904,
        9.827704429626465
      ],
      "min": [
        5.643342971801758,
        -5.588533878326416,
        6.432916164398193
      ],
      "type": "VEC3"
    },
    {
      "bufferView": 2,
      "byteOffset": 17688,
      "componentType": 5126,
      "count": 1474,
      "max": [
        0.9955924153327942,
        0.9993095397949219,
        0.997698187828064
      ],
      "min": [
        -0.9955924153327942,
        -0.9993095397949219,
        -0.9978494644165039
      ],
      "type": "VEC3"
    },
    {
      "bufferView": 1,
      "componentType": 5126,
      "count": 1474,
      "max": [
        0.9919310212135315,
        0.9900680184364319
      ],
      "min": [
        0.006273999810218811,
        0.00015700000221841037
      ],
      "type": "VEC2"
    },
    {
      "bufferView": 0,
      "componentType": 5125,
      "count": 6768,
      "type": "SCALAR"
    },
    {
      "bufferView": 2,
      "byteOffset": 35376,
      "componentType": 5126,
      "count": 18,
      "max": [
        -0.3558889925479889,
        10.431039810180664,
        15.666462898254395
      ],
      "min": [
        -4.33660888671875,
        8.89408016204834,
        12.639089584350586
      ],
      "type": "VEC3"
    },
    {
      "bufferView": 2,
      "byteOffset": 35592,
      "componentType": 5126,
      "count": 18,
      "max": [
        0.7852048873901367,
        0.9638965725898743,
        0.1418941617012024
      ],
      "min": [
        -0.4323919415473938,
        0.6191037893295288,
        -0.7185100317001343
      ],
      "type": "VEC3"
    },
    {
      "bufferView": 1,
      "byteOffset": 11792,
      "componentType": 5126,
      "count": 18,
      "max": [
        0.9998999834060669,
        0.9998999834060669
      ],
      "min": [
        9.999999747378752e-05,
        9.999999747378752e-05
      ],
      "type": "VEC2"
    },
    {
      "bufferView": 0,
      "byteOffset": 27072,
      "componentType": 5125,
      "count": 48,
      "type": "SCALAR"
    },
    {
      "bufferView": 2,
      "byteOffset": 35808,
      "componentType": 5126,
      "count": 16357,
      "max": [
        9.218903541564941,
        10.283950805664063,
        19.817543029785156
      ],
      "min": [
        -10.44906234741211,
        -2.347623109817505,
        -0.32857799530029297
      ],
      "type": "VEC3"
    },
    {
      "bufferView": 2,
      "byteOffset": 232092,
      "componentType": 5126,
      "count": 16357,
      "max": [
        0.9998409152030945,
        0.9999675750732422,
        0.9997768998146057
      ],
      "min": [
        -0.9999736547470093,
        -0.9997155070304871,
        -0.9998027682304382
      ],
      "type": "VEC3"
    },
    {
      "bufferView": 1,
      "byteOffset": 11936,
      "componentType": 5126,
      "count": 16357,
      "max": [
        0.9888790249824524,
        0.991038978099823
      ],
      "min": [
        0.017230000346899033,
        0.016474999487400055
      ],
      "type": "VEC2"
    },
    {
      "bufferView": 0,
      "byteOffset": 27264,
      "componentType": 5125,
      "count": 86964,
      "type": "SCALAR"
    },
    {
      "bufferView": 2,
      "byteOffset": 428376,
      "componentType": 5126,
      "count": 16591,
      "max": [
        8.179641723632813,
        2.312372922897339,
        19.799606323242188
      ],
      "min": [
        -5.308197975158691,
        -13.600540161132813,
        -0.5070739984512329
      ],
      "type": "VEC3"
    },
    {
      "bufferView": 2,
      "byteOffset": 627468,
      "componentType": 5126,
      "count": 16591,
      "max": [
        0.9997643828392029,
        0.9998890161514282,
        0.9998947381973267
      ],
      "min": [
        -0.9998928308486938,
        -0.9999713897705078,
        -0.9998806715011597
      ],
      "type": "VEC3"
    },
    {
      "bufferView": 1,
      "byteOffset": 142792,
      "componentType": 5126,
      "count": 16591,
      "max": [
        0.9888790249824524,
        0.991038978099823
      ],
      "min": [
        0.017230000346899033,
        0.016474999487400055
      ],
      "type": "VEC2"
    },
    {
      "bufferView": 0,
      "byteOffset": 375120,
      "componentType": 5125,
      "count": 88140,
      "type": "SCALAR"
    }
  ],
  "asset": {
    "extras": {
      "author": "Cally3D (https://sketchfab.com/Cally3D)",
      "license": "CC-BY-4.0 (http://creativecommons.org/licenses/by/4.0/)",
      "source": "https://sketchfab.com/3d-models/friday-night-funkin-vs-whitty-f40c4695ea004e8ea216c85622e7bfc6",
      "title": "Friday Night Funkin' - VS Whitty"
    },
    "generator": "Sketchfab-10.44.0",
    "version": "2.0"
  },
  "bufferViews": [
    {
      "buffer": 0,
      "byteLength": 727680,
      "name": "floatBufferViews",
      "target": 34963
    },
    {
      "buffer": 0,
      "byteLength": 275520,
      "byteOffset": 727680,
      "byteStride": 8,
      "name": "floatBufferViews",
      "target": 34962
    },
    {
      "buffer": 0,
      "byteLength": 826560,
      "byteOffset": 1003200,
      "byteStride": 12,
      "name": "floatBufferViews",
      "target": 34962
    }
  ],
  "buffers": [
    {
      "byteLength": 1829760,
      "uri": "scene.bin"
    }
  ],
  "extensionsUsed": [
    "KHR_materials_unlit"
  ],
  "images": [
    {
      "uri": "textures/MicrophoneTex_baseColor.png"
    },
    {
      "uri": "textures/WhittyEyesTex_baseColor.png"
    },
    {
      "uri": "textures/WhittyRageTex_baseColor.png"
    },
    {
      "uri": "textures/WhittyTex_baseColor.png"
    }
  ],
  "materials": [
    {
      "extensions": {
        "KHR_materials_unlit": {}
      },
      "name": "MicrophoneTex",
      "pbrMetallicRoughness": {
        "baseColorTexture": {
          "index": 0
        },
        "metallicFactor": 0.0
      }
    },
    {
      "alphaMode": "BLEND",
      "doubleSided": true,
      "extensions": {
        "KHR_materials_unlit": {}
      },
      "name": "WhittyEyesTex",
      "pbrMetallicRoughness": {
        "baseColorTexture": {
          "index": 1
        },
        "metallicFactor": 0.0
      }
    },
    {
      "extensions": {
        "KHR_materials_unlit": {}
      },
      "name": "WhittyRageTex",
      "pbrMetallicRoughness": {
        "baseColorTexture": {
          "index": 2
        },
        "metallicFactor": 0.0
      }
    },
    {
      "extensions": {
        "KHR_materials_unlit": {}
      },
      "name": "WhittyTex",
      "pbrMetallicRoughness": {
        "baseColorTexture": {
          "index": 3
        },
        "metallicFactor": 0.0
      }
    }
  ],
  "meshes": [
    {
      "name": "Object_0",
      "primitives": [
        {
          "attributes": {
            "NORMAL": 1,
            "POSITION": 0,
            "TEXCOORD_0": 2
          },
          "indices": 3,
          "material": 0,
          "mode": 4
        }
      ]
    },
    {
      "name": "Object_1",
      "primitives": [
        {
          "attributes": {
            "NORMAL": 5,
            "POSITION": 4,
            "TEXCOORD_0": 6
          },
          "indices": 7,
          "material": 1,
          "mode": 4
        }
      ]
    },
    {
      "name": "Object_2",
      "primitives": [
        {
          "attributes": {
            "NORMAL": 9,
            "POSITION": 8,
            "TEXCOORD_0": 10
          },
          "indices": 11,
          "material": 2,
          "mode": 4
        }
      ]
    },
    {
      "name": "Object_3",
      "primitives": [
        {
          "attributes": {
            "NORMAL": 13,
            "POSITION": 12,
            "TEXCOORD_0": 14
          },
          "indices": 15,
          "material": 3,
          "mode": 4
        }
      ]
    }
  ],
  "nodes": [
    {
      "children": [
        1
      ],
      "matrix": [
        1.0,
        0.0,
        0.0,
        0.0,
        0.0,
        2.220446049250313e-16,
        -1.0,
        0.0,
        0.0,
        1.0,
        2.220446049250313e-16,
        0.0,
        0.0,
        0.0,
        0.0,
        1.0
      ],
      "name": "Sketchfab_model"
    },
    {
      "children": [
        2,
        3,
        4,
        5
      ],
      "name": "Whitty Preview.obj.cleaner.materialmerger.gles"
    },
    {
      "mesh": 0,
      "name": "Object_2"
    },
    {
      "mesh": 1,
      "name": "Object_3"
    },
    {
      "mesh": 2,
      "name": "Object_4"
    },
    {
      "mesh": 3,
      "name": "Object_5"
    }
  ],
  "samplers": [
    {
      "magFilter": 9729,
      "minFilter": 9987,
      "wrapS": 10497,
      "wrapT": 10497
    }
  ],
  "scene": 0,
  "scenes": [
    {
      "name": "Sketchfab_Scene",
      "nodes": [
        0
      ]
    }
  ],
  "textures": [
    {
      "sampler": 0,
      "source": 0
    },
    {
      "sampler": 0,
      "source": 1
    },
    {
      "sampler": 0,
      "source": 2
    },
    {
      "sampler": 0,
      "source": 3
    }
  ]
}
