{
  "accessors": [
    {
      "bufferView": 2,
      "componentType": 5126,
      "count": 65532,
      "max": [
        6.742520809173584,
        -0.7400875091552734,
        5.299498558044434
      ],
      "min": [
        -8.131515502929688,
        -10.532196044921875,
        -5.46406364440918
      ],
      "type": "VEC3"
    },
    {
      "bufferView": 2,
      "byteOffset": 786384,
      "componentType": 5126,
      "count": 65532,
      "max": [
        0.9999999403953552,
        0.9999960064888,
        0.9999998807907104
      ],
      "min": [
        -0.9999998807907104,
        -0.9999985098838806,
        -0.9999998807907104
      ],
      "type": "VEC3"
    },
    {
      "bufferView": 1,
      "componentType": 5126,
      "count": 65532,
      "max": [
        0.9996569752693176,
        0.8519290089607239
      ],
      "min": [
        0.0015869999770075083,
        0.000387999985832721
      ],
      "type": "VEC2"
    },
    {
      "bufferView": 0,
      "componentType": 5125,
      "count": 302847,
      "type": "SCALAR"
    },
    {
      "bufferView": 2,
      "byteOffset": 1572768,
      "componentType": 5126,
      "count": 65532,
      "max": [
        6.742520809173584,
        -0.7416128516197205,
        5.202178001403809
      ],
      "min": [
        -8.131515502929688,
        -14.825338363647461,
        -5.46406364440918
      ],
      "type": "VEC3"
    },
    {
      "bufferView": 2,
      "byteOffset": 2359152,
      "componentType": 5126,
      "count": 65532,
      "max": [
        0.999999463558197,
        0.9999772906303406,
        0.9999998211860657
      ],
      "min": [
        -0.999988317489624,
        -0.9999995827674866,
        -1.0
      ],
      "type": "VEC3"
    },
    {
      "bufferView": 1,
      "byteOffset": 524256,
      "componentType": 5126,
      "count": 65532,
      "max": [
        0.999783992767334,
        0.8519290089607239
      ],
      "min": [
        0.00012199999764561653,
        0.000311999989207834
      ],
      "type": "VEC2"
    },
    {
      "bufferView": 0,
      "byteOffset": 1211388,
      "componentType": 5125,
      "count": 290136,
      "type": "SCALAR"
    },
    {
      "bufferView": 2,
      "byteOffset": 3145536,
      "componentType": 5126,
      "count": 65532,
      "max": [
        6.717229843139648,
        -0.8024035096168518,
        5.204503536224365
      ],
      "min": [
        -8.131515502929688,
        -10.47851276397705,
        -5.46406364440918
      ],
      "type": "VEC3"
    },
    {
      "bufferView": 2,
      "byteOffset": 3931920,
      "componentType": 5126,
      "count": 65532,
      "max": [
        0.999999463558197,
        0.9999972581863403,
        1.0
      ],
      "min": [
        -0.9999989867210388,
        -0.9999964833259583,
        -1.0
      ],
      "type": "VEC3"
    },
    {
      "bufferView": 1,
      "byteOffset": 1048512,
      "componentType": 5126,
      "count": 65532,
      "max": [
        0.9998070001602173,
        0.8516849875450134
      ],
      "min": [
        0.00012199999764561653,
        0.000375000003259629
      ],
      "type": "VEC2"
    },
    {
      "bufferView": 0,
      "byteOffset": 2371932,
      "componentType": 5125,
      "count": 251379,
      "type": "SCALAR"
    },
    {
      "bufferView": 2,
      "byteOffset": 4718304,
      "componentType": 5126,
      "count": 65532,
      "max": [
        6.585228443145752,
        -0.8342860341072083,
        5.0888471603393555
      ],
      "min": [
        -8.077417373657227,
        -10.603326797485352,
        -5.46406364440918
      ],
      "type": "VEC3"
    },
    {
      "bufferView": 2,
      "byteOffset": 5504688,
      "componentType": 5126,
      "count": 65532,
      "max": [
        0.9999997615814209,
        0.9999700784683228,
        1.0
      ],
      "min": [
        -0.999999463558197,
        -0.9999992847442627,
        -1.0
      ],
      "type": "VEC3"
    },
    {
      "bufferView": 1,
      "byteOffset": 1572768,
      "componentType": 5126,
      "count": 65532,
      "max": [
        0.999809980392456,
        0.8516849875450134
      ],
      "min": [
        0.00012199999764561653,
        0.0004149999876972288
      ],
      "type": "VEC2"
    },
    {
      "bufferView": 0,
      "byteOffset": 3377448,
      "componentType": 5125,
      "count": 236526,
      "type": "SCALAR"
    },
    {
      "bufferView": 2,
      "byteOffset": 6291072,
      "componentType": 5126,
      "count": 65533,
      "max": [
        6.707670211791992,
        -0.8428537845611572,
        5.264642715454102
      ],
      "min": [
        -8.103432655334473,
        -10.549604415893555,
        -5.378393173217773
      ],
      "type": "VEC3"
    },
    {
      "bufferView": 2,
      "byteOffset": 7077468,
      "componentType": 5126,
      "count": 65533,
      "max": [
        1.0,
        0.9999871253967285,
        1.0
      ],
      "min": [
        -0.9999987483024597,
        -0.999998152256012,
        -0.9999999403953552
      ],
      "type": "VEC3"
    },
    {
      "bufferView": 1,
      "byteOffset": 2097024,
      "componentType": 5126,
      "count": 65533,
      "max": [
        0.9998160004615784,
        0.8519290089607239
      ],
      "min": [
        0.00012199999764561653,
        0.0003929999948013574
      ],
      "type": "VEC2"
    },
    {
      "bufferView": 0,
      "byteOffset": 4323552,
      "componentType": 5125,
      "count": 195198,
      "type": "SCALAR"
    },
    {
      "bufferView": 2,
      "byteOffset": 7863864,
      "componentType": 5126,
      "count": 47683,
      "max": [
        6.702548503875732,
        -0.785151481628418,
        5.278800010681152
      ],
      "min": [
        -8.003824234008789,
        -10.903111457824707,
        -5.46406364440918
      ],
      "type": "VEC3"
    },
    {
      "bufferView": 2,
      "byteOffset": 8436060,
      "componentType": 5126,
      "count": 47683,
      "max": [
        0.9999998211860657,
        0.9999608993530273,
        1.0
      ],
      "min": [
        -0.9999999403953552,
        -0.999998152256012,
        -0.999999463558197
      ],
      "type": "VEC3"
    },
    {
      "bufferView": 1,
      "byteOffset": 2621288,
      "componentType": 5126,
      "count": 47683,
      "max": [
        0.999809980392456,
        0.8519290089607239
      ],
      "min": [
        0.00012199999764561653,
        0.0017999999690800905
      ],
      "type": "VEC2"
    },
    {
      "bufferView": 0,
      "byteOffset": 5104344,
      "componentType": 5125,
      "count": 147555,
      "type": "SCALAR"
    },
    {
      "bufferView": 2,
      "byteOffset": 9008256,
      "componentType": 5126,
      "count": 8204,
      "max": [
        6.742522239685059,
        -0.6616973280906677,
        5.299498558044434
      ],
      "min": [
        -8.131515502929688,
        -0.9935014843940735,
        -5.464064598083496
      ],
      "type": "VEC3"
    },
    {
      "bufferView": 2,
      "byteOffset": 9106704,
      "componentType": 5126,
      "count": 8204,
      "max": [
        1.0,
        1.0,
        0.9977116584777832
      ],
      "min": [
        -1.0,
        -0.9999917149543762,
        -1.0
      ],
      "type": "VEC3"
    },
    {
      "bufferView": 1,
      "byteOffset": 3002752,
      "componentType": 5126,
      "count": 8204,
      "max": [
        0.0,
        0.0
      ],
      "min": [
        0.0,
        0.0
      ],
      "type": "VEC2"
    },
    {
      "bufferView": 0,
      "byteOffset": 5694564,
      "componentType": 5125,
      "count": 41517,
      "type": "SCALAR"
    },
    {
      "bufferView": 2,
      "byteOffset": 9205152,
      "componentType": 5126,
      "count": 1738,
      "max": [
        6.742520809173584,
        -0.6616977453231812,
        5.299499988555908
      ],
      "min": [
        -8.131515502929688,
        -0.9426181316375732,
        5.299498558044434
      ],
      "type": "VEC3"
    },
    {
      "bufferView": 2,
      "byteOffset": 9226008,
      "componentType": 5126,
      "count": 1738,
      "max": [
        0.9999959468841553,
        0.9999284148216248,
        1.0
      ],
      "min": [
        -0.9489418864250183,
        -0.9999325275421143,
        -0.5501568913459778
      ],
      "type": "VEC3"
    },
    {
      "bufferView": 1,
      "byteOffset": 3068384,
      "componentType": 5126,
      "count": 1738,
      "max": [
        0.0,
        0.0
      ],
      "min": [
        0.0,
        0.0
      ],
      "type": "VEC2"
    },
    {
      "bufferView": 0,
      "byteOffset": 5860632,
      "componentType": 5125,
      "count": 7146,
      "type": "SCALAR"
    }
  ],
  "asset": {
    "extras": {
      "author": "noe-3d.at (https://sketchfab.com/www.noe-3d.at)",
      "license": "CC-BY-NC-4.0 (http://creativecommons.org/licenses/by-nc/4.0/)",
      "source": "https://sketchfab.com/3d-models/pestkapelle-18eec9bab9564c53b2a298feac59aa0d",
      "title": "Pestkapelle"
    },
    "generator": "Sketchfab-10.41.0",
    "version": "2.0"
  },
  "bufferViews": [
    {
      "buffer": 0,
      "byteLength": 5889216,
      "name": "floatBufferViews",
      "target": 34963
    },
    {
      "buffer": 0,
      "byteLength": 3082288,
      "byteOffset": 5889216,
      "byteStride": 8,
      "name": "floatBufferViews",
      "target": 34962
    },
    {
      "buffer": 0,
      "byteLength": 9246864,
      "byteOffset": 8971504,
      "byteStride": 12,
      "name": "floatBufferViews",
      "target": 34962
    }
  ],
  "buffers": [
    {
      "byteLength": 18218368,
      "uri": "scene.bin"
    }
  ],
  "images": [
    {
      "uri": "textures/Pestkapelle_O_Material_u1_v1_baseColor.png"
    }
  ],
  "materials": [
    {
      "doubleSided": true,
      "name": "Pestkapelle_O_Material_u1_v1",
      "pbrMetallicRoughness": {
        "baseColorTexture": {
          "index": 0
        },
        "metallicFactor": 0.0
      }
    }
  ],
  "meshes": [
    {
      "name": "Object_0",
      "primitives": [
        {
          "attributes": {
            "NORMAL": 1,
            "POSITION": 0,
            "TEXCOORD_0": 2
          },
          "indices": 3,
          "material": 0,
          "mode": 4
        }
      ]
    },
    {
      "name": "Object_1",
      "primitives": [
        {
          "attributes": {
            "NORMAL": 5,
            "POSITION": 4,
            "TEXCOORD_0": 6
          },
          "indices": 7,
          "material": 0,
          "mode": 4
        }
      ]
    },
    {
      "name": "Object_2",
      "primitives": [
        {
          "attributes": {
            "NORMAL": 9,
            "POSITION": 8,
            "TEXCOORD_0": 10
          },
          "indices": 11,
          "material": 0,
          "mode": 4
        }
      ]
    },
    {
      "name": "Object_3",
      "primitives": [
        {
          "attributes": {
            "NORMAL": 13,
            "POSITION": 12,
            "TEXCOORD_0": 14
          },
          "indices": 15,
          "material": 0,
          "mode": 4
        }
      ]
    },
    {
      "name": "Object_4",
      "primitives": [
        {
          "attributes": {
            "NORMAL": 17,
            "POSITION": 16,
            "TEXCOORD_0": 18
          },
          "indices": 19,
          "material": 0,
          "mode": 4
        }
      ]
    },
    {
      "name": "Object_5",
      "primitives": [
        {
          "attributes": {
            "NORMAL": 21,
            "POSITION": 20,
            "TEXCOORD_0": 22
          },
          "indices": 23,
          "material": 0,
          "mode": 4
        }
      ]
    },
    {
      "name": "Object_6",
      "primitives": [
        {
          "attributes": {
            "NORMAL": 25,
            "POSITION": 24,
            "TEXCOORD_0": 26
          },
          "indices": 27,
          "material": 0,
          "mode": 4
        }
      ]
    },
    {
      "name": "Object_7",
      "primitives": [
        {
          "attributes": {
            "NORMAL": 29,
            "POSITION": 28,
            "TEXCOORD_0": 30
          },
          "indices": 31,
          "material": 0,
          "mode": 4
        }
      ]
    }
  ],
  "nodes": [
    {
      "children": [
        1
      ],
      "matrix": [
        0.7259284853935242,
        0.0,
        0.0,
        0.0,
        0.0,
        -0.7259284421248147,
        -0.00022428134862181856,
        0.0,
        0.0,
        0.00022428134862181856,
        -0.7259284421248147,
        0.0,
        0.0,
        -7.82575035095215,
        7.658825397491453,
        1.0
      ],
      "name": "Sketchfab_model"
    },
    {
      "children": [
        2,
        3,
        4,
        5,
        6,
        7,
        8,
        9
      ],
      "name": "Pestkapelle_CN.obj.cleaner.materialmerger.gles"
    },
    {
      "mesh": 0,
      "name": "Object_2"
    },
    {
      "mesh": 1,
      "name": "Object_3"
    },
    {
      "mesh": 2,
      "name": "Object_4"
    },
    {
      "mesh": 3,
      "name": "Object_5"
    },
    {
      "mesh": 4,
      "name": "Object_6"
    },
    {
      "mesh": 5,
      "name": "Object_7"
    },
    {
      "mesh": 6,
      "name": "Object_8"
    },
    {
      "mesh": 7,
      "name": "Object_9"
    }
  ],
  "samplers": [
    {
      "magFilter": 9729,
      "minFilter": 9987,
      "wrapS": 10497,
      "wrapT": 10497
    }
  ],
  "scene": 0,
  "scenes": [
    {
      "name": "Sketchfab_Scene",
      "nodes": [
        0
      ]
    }
  ],
  "textures": [
    {
      "sampler": 0,
      "source": 0
    }
  ]
}
